<?xml version="1.0" encoding="UTF-8" standalone="no"?>
<!-- Created with Inkscape (http://www.inkscape.org/) -->

<svg
   width="1513.7816mm"
   height="1071.8864mm"
   viewBox="0 0 1513.7816 1071.8864"
   version="1.1"
   id="svg1"
   inkscape:version="1.4.2 (ebf0e940d0, 2025-05-08)"
   sodipodi:docname="respond.svg"
   xmlns:inkscape="http://www.inkscape.org/namespaces/inkscape"
   xmlns:sodipodi="http://sodipodi.sourceforge.net/DTD/sodipodi-0.dtd"
   xmlns="http://www.w3.org/2000/svg"
   xmlns:svg="http://www.w3.org/2000/svg">
  <sodipodi:namedview
     id="namedview1"
     pagecolor="#ffffff"
     bordercolor="#000000"
     borderopacity="0.25"
     inkscape:showpageshadow="2"
     inkscape:pageopacity="0.0"
     inkscape:pagecheckerboard="0"
     inkscape:deskcolor="#d1d1d1"
     inkscape:document-units="mm"
     inkscape:zoom="0.14369434"
     inkscape:cx="3239.5152"
     inkscape:cy="1283.9754"
     inkscape:window-width="1920"
     inkscape:window-height="1080"
     inkscape:window-x="0"
     inkscape:window-y="0"
     inkscape:window-maximized="1"
     inkscape:current-layer="layer1" />
  <defs
     id="defs1" />
  <g
     inkscape:label="Layer 1"
     inkscape:groupmode="layer"
     id="layer1"
     transform="translate(441.28419,12.657537)">
    <rect
       style="fill:none;fill-rule:evenodd;stroke:#000000;stroke-width:0.982111;stroke-linecap:round;stroke-linejoin:bevel;stroke-opacity:1"
       id="rect1"
       width="276.46432"
       height="46.534977"
       x="118.70031"
       y="325.94177"
       ry="0.0037490299" />
    <text
       xml:space="preserve"
       style="font-style:normal;font-variant:normal;font-weight:normal;font-stretch:normal;font-size:28.443px;line-height:1.3;font-family:Elham;-inkscape-font-specification:Elham;text-align:center;writing-mode:lr-tb;direction:ltr;text-anchor:middle;fill:#000000;fill-opacity:1;fill-rule:evenodd;stroke:none;stroke-width:2.33412;stroke-linecap:round;stroke-linejoin:bevel;stroke-opacity:1"
       x="257.78958"
       y="358.73306"
       id="text1"><tspan
         sodipodi:role="line"
         id="tspan1"
         style="font-style:normal;font-variant:normal;font-weight:normal;font-stretch:normal;font-family:Elham;-inkscape-font-specification:Elham;fill:#000000;fill-opacity:1;stroke:none;stroke-width:2.33412"
         x="257.78958"
         y="358.73306">RespondGenerator</tspan></text>
    <rect
       style="fill:none;fill-rule:evenodd;stroke:#000000;stroke-width:1.99729;stroke-linecap:round;stroke-linejoin:bevel;stroke-opacity:1"
       id="rect2"
       width="521.35168"
       height="102.05837"
       x="-3.0670898"
       y="174.8278"
       ry="0.0082222009" />
    <text
       xml:space="preserve"
       style="font-style:normal;font-variant:normal;font-weight:normal;font-stretch:normal;font-size:28.443px;line-height:1.3;font-family:Elham;-inkscape-font-specification:Elham;text-align:center;writing-mode:lr-tb;direction:ltr;text-anchor:middle;fill:#000000;fill-opacity:1;fill-rule:evenodd;stroke:none;stroke-width:2.33412;stroke-linecap:round;stroke-linejoin:bevel;stroke-opacity:1"
       x="251.88564"
       y="164.83609"
       id="text2"><tspan
         sodipodi:role="line"
         id="tspan2"
         style="font-style:normal;font-variant:normal;font-weight:normal;font-stretch:normal;font-family:Elham;-inkscape-font-specification:Elham;fill:#000000;fill-opacity:1;stroke:none;stroke-width:2.33412"
         x="251.88564"
         y="164.83609">data</tspan></text>
    <rect
       style="fill:none;fill-rule:evenodd;stroke:#000000;stroke-width:0.687048;stroke-linecap:round;stroke-linejoin:bevel;stroke-opacity:1"
       id="rect3"
       width="134.44566"
       height="46.83004"
       x="17.708502"
       y="199.50871"
       ry="0.0037728013" />
    <text
       xml:space="preserve"
       style="font-style:normal;font-variant:normal;font-weight:normal;font-stretch:normal;font-size:28.443px;line-height:1.3;font-family:Elham;-inkscape-font-specification:Elham;text-align:center;writing-mode:lr-tb;direction:ltr;text-anchor:middle;fill:#000000;fill-opacity:1;fill-rule:evenodd;stroke:none;stroke-width:2.33412;stroke-linecap:round;stroke-linejoin:bevel;stroke-opacity:1"
       x="85.340919"
       y="232.44753"
       id="text3"><tspan
         sodipodi:role="line"
         id="tspan3"
         style="font-style:normal;font-variant:normal;font-weight:normal;font-stretch:normal;font-family:Elham;-inkscape-font-specification:Elham;fill:#000000;fill-opacity:1;stroke:none;stroke-width:2.33412"
         x="85.340919"
         y="232.44753">Socket</tspan></text>
    <rect
       style="fill:none;fill-rule:evenodd;stroke:#000000;stroke-width:0.687048;stroke-linecap:round;stroke-linejoin:bevel;stroke-opacity:1"
       id="rect4"
       width="134.44566"
       height="46.83004"
       x="189.6877"
       y="199.50871"
       ry="0.0037728013" />
    <text
       xml:space="preserve"
       style="font-style:normal;font-variant:normal;font-weight:normal;font-stretch:normal;font-size:28.443px;line-height:1.3;font-family:Elham;-inkscape-font-specification:Elham;text-align:center;writing-mode:lr-tb;direction:ltr;text-anchor:middle;fill:#000000;fill-opacity:1;fill-rule:evenodd;stroke:none;stroke-width:2.33412;stroke-linecap:round;stroke-linejoin:bevel;stroke-opacity:1"
       x="257.32022"
       y="232.44753"
       id="text4"><tspan
         sodipodi:role="line"
         id="tspan4"
         style="font-style:normal;font-variant:normal;font-weight:normal;font-stretch:normal;font-family:Elham;-inkscape-font-specification:Elham;fill:#000000;fill-opacity:1;stroke:none;stroke-width:2.33412"
         x="257.32022"
         y="232.44753">Request</tspan></text>
    <rect
       style="fill:none;fill-rule:evenodd;stroke:#000000;stroke-width:0.687048;stroke-linecap:round;stroke-linejoin:bevel;stroke-opacity:1"
       id="rect5"
       width="134.44566"
       height="46.83004"
       x="361.66672"
       y="199.50871"
       ry="0.0037728013" />
    <text
       xml:space="preserve"
       style="font-style:normal;font-variant:normal;font-weight:normal;font-stretch:normal;font-size:28.443px;line-height:1.3;font-family:Elham;-inkscape-font-specification:Elham;text-align:center;writing-mode:lr-tb;direction:ltr;text-anchor:middle;fill:#000000;fill-opacity:1;fill-rule:evenodd;stroke:none;stroke-width:2.33412;stroke-linecap:round;stroke-linejoin:bevel;stroke-opacity:1"
       x="429.29901"
       y="232.44753"
       id="text5"><tspan
         sodipodi:role="line"
         id="tspan5"
         style="font-style:normal;font-variant:normal;font-weight:normal;font-stretch:normal;font-family:Elham;-inkscape-font-specification:Elham;fill:#000000;fill-opacity:1;stroke:none;stroke-width:2.33412"
         x="429.29901"
         y="232.44753">Resource</tspan></text>
    <path
       style="display:inline;fill:none;fill-rule:evenodd;stroke:#000000;stroke-width:0.261915px;stroke-linecap:butt;stroke-linejoin:miter;stroke-opacity:1"
       d="m 257.89403,277.88555 -0.27015,47.9087"
       id="path5"
       inkscape:connector-type="polyline"
       inkscape:connector-curvature="0" />
    <path
       style="fill:#000000;fill-opacity:1;fill-rule:evenodd;stroke:none;stroke-width:1.158;stroke-linecap:round;stroke-linejoin:bevel;stroke-opacity:1"
       id="path10"
       d="M 8.0224947,87.16239 C 4.4314162,86.764563 3.6814786,86.630765 -0.73465001,86.52172 -6.3508201,86.383044 -17.083323,86.501109 -22.416656,86.560646 c -14.596382,0.16297 -10.052256,0.09484 -25.040481,0.623226 -21.473406,1.007882 -42.914784,2.510369 -64.400993,3.252337 -3.98115,0.171315 -7.98358,0.12809 -11.95852,0.458581 -1.0612,0.08823 -2.17994,0.135173 -3.06995,0.751531 0,0 3.32904,2.128673 3.32904,2.128673 v 0 c 0.7939,-0.518596 1.87513,-0.599551 2.78479,-0.701154 3.84921,-0.429926 7.73502,-0.478639 11.59688,-0.706244 21.31509,-1.081659 42.60003,-2.661618 63.922642,-3.593658 12.834152,-0.400235 12.566348,-0.475287 25.129148,-0.549053 10.4125133,-0.06114 20.95055514,-0.304982 31.271895,1.303809 z" />
    <path
       style="fill:#000000;fill-opacity:1;fill-rule:evenodd;stroke:none;stroke-width:1.158;stroke-linecap:round;stroke-linejoin:bevel;stroke-opacity:1"
       id="path11"
       d="m -126.16978,99.90059 c 2.33864,16.72933 4.55821,33.47714 6.61677,50.2435 1.44315,12.96439 2.18169,26.01913 1.77579,39.06431 -0.20665,6.64113 -0.46038,8.23095 -1.08169,14.66541 -0.62495,5.08382 -1.57027,10.15547 -3.22032,15.01614 -0.36379,1.07163 -0.83195,2.10494 -1.24792,3.15742 0,0 3.1996,1.78023 3.1996,1.78023 v 0 c 0.3969,-1.07499 0.84534,-2.13233 1.19068,-3.22497 1.56007,-4.93589 2.45351,-10.06343 3.0115,-15.20015 0.20224,-2.32669 0.45907,-4.64928 0.60671,-6.98007 0.99203,-15.66124 0.0568,-31.38438 -1.58032,-46.96688 -2.06352,-16.58653 -4.38743,-33.15134 -5.78434,-49.81209 z" />
    <path
       style="fill:#000000;fill-opacity:1;fill-rule:evenodd;stroke:none;stroke-width:1.158;stroke-linecap:round;stroke-linejoin:bevel;stroke-opacity:1"
       id="path12"
       d="m -118.51082,229.72777 c 17.89368,-1.88833 35.782778,-3.82811 53.724004,-5.20797 9.849405,-0.61206 19.762967,-1.1359 29.579416,0.11339 0,0 -2.948157,-2.19413 -2.948157,-2.19413 v 0 c -9.670973,-0.99754 -19.397403,-0.35415 -29.071215,0.33727 -18.156777,1.47675 -36.260728,3.5948 -54.447348,4.68746 z" />
    <path
       style="fill:#000000;fill-opacity:1;fill-rule:evenodd;stroke:none;stroke-width:1.158;stroke-linecap:round;stroke-linejoin:bevel;stroke-opacity:1"
       id="path13"
       d="m -37.919776,204.53054 c 4.633405,4.24527 8.937826,8.84655 13.351729,13.32042 2.756816,2.91685 5.688206,5.68029 8.056827,8.93438 0.911517,1.4148 1.407668,2.26598 0.460264,3.74667 -3.685524,3.25695 -7.248051,6.64963 -10.80739,10.04447 -3.390963,3.2386 -6.840196,6.41338 -10.199481,9.68531 0,0 3.246165,1.99074 3.246165,1.99074 v 0 c 3.281966,-3.32557 6.652853,-6.55687 10.044467,-9.77027 3.626482,-3.41212 7.307016,-6.7594 11.11405,-9.96694 1.053079,-1.63284 0.731139,-2.58155 -0.296264,-4.1877 -2.395577,-3.33386 -5.425602,-6.11154 -8.243912,-9.07695 -4.375417,-4.39845 -8.643339,-8.9064 -13.073988,-13.24588 z" />
    <text
       xml:space="preserve"
       style="font-style:normal;font-variant:normal;font-weight:normal;font-stretch:normal;font-size:14.1111px;line-height:1.3;font-family:Elham;-inkscape-font-specification:Elham;text-align:center;writing-mode:lr-tb;direction:ltr;text-anchor:middle;fill:#000000;fill-opacity:1;fill-rule:evenodd;stroke:none;stroke-width:1.158;stroke-linecap:round;stroke-linejoin:bevel;stroke-opacity:1"
       x="-55.992817"
       y="83.070251"
       id="text13"><tspan
         sodipodi:role="line"
         style="stroke-width:1.158"
         x="-55.992817"
         y="83.070251"
         id="tspan14">service external ctx</tspan></text>
    <path
       style="display:inline;fill:none;fill-rule:evenodd;stroke:#000000;stroke-width:0.324088px;stroke-linecap:butt;stroke-linejoin:miter;stroke-opacity:1"
       d="m 257.8928,372.60382 -0.26769,74.02771"
       id="path15"
       inkscape:connector-type="polyline"
       inkscape:connector-curvature="0" />
    <rect
       style="fill:none;fill-rule:evenodd;stroke:#000000;stroke-width:0.982111;stroke-linecap:round;stroke-linejoin:bevel;stroke-opacity:1"
       id="rect15"
       width="276.46432"
       height="46.534977"
       x="118.70031"
       y="447.1207"
       ry="0.0037490299" />
    <text
       xml:space="preserve"
       style="font-style:normal;font-variant:normal;font-weight:normal;font-stretch:normal;font-size:28.443px;line-height:1.3;font-family:Elham;-inkscape-font-specification:Elham;text-align:center;writing-mode:lr-tb;direction:ltr;text-anchor:middle;fill:#000000;fill-opacity:1;fill-rule:evenodd;stroke:none;stroke-width:2.33412;stroke-linecap:round;stroke-linejoin:bevel;stroke-opacity:1"
       x="257.78958"
       y="479.91199"
       id="text15"><tspan
         sodipodi:role="line"
         id="tspan15"
         style="font-style:normal;font-variant:normal;font-weight:normal;font-stretch:normal;font-family:Elham;-inkscape-font-specification:Elham;fill:#000000;fill-opacity:1;stroke:none;stroke-width:2.33412"
         x="257.78958"
         y="479.91199">RespondBuilder</tspan></text>
    <path
       style="fill:#000000;fill-opacity:1;fill-rule:evenodd;stroke:none;stroke-width:1.158;stroke-linecap:round;stroke-linejoin:bevel;stroke-opacity:1"
       id="path16"
       d="m 278.15972,407.92529 c -1.46339,2.0465 -3.05655,3.98383 -4.8005,5.79686 -1.82163,1.7957 -3.68096,3.53846 -5.345,5.48341 -0.96994,1.28847 -2.735,2.22676 -3.15696,3.85278 0.77166,2.72955 4.53157,2.71802 6.84961,3.14463 1.85754,0.34602 3.61839,1.10546 5.30702,1.93569 0.30289,0.13645 1.18938,0.58706 0.90865,0.40939 -0.83436,-0.52811 -3.4268,-1.96405 -2.57521,-1.4642 8.73289,5.12611 3.15246,1.7377 1.5182,0.89887 -0.55464,-0.2847 1.00894,0.73517 1.48043,1.14308 0.22436,0.19846 0.4487,0.39692 0.67307,0.59539 0,0 3.64556,1.4823 3.64556,1.4823 v 0 c -0.22598,-0.19672 -0.45196,-0.39341 -0.67794,-0.59013 -1.68902,-1.6089 -3.41977,-2.33309 -5.57464,-3.63072 -0.86061,-0.51824 3.48406,2.00203 2.6076,1.51112 -4.99813,-2.79945 -2.60617,-1.66833 -5.07743,-2.80339 -1.72178,-0.80098 -3.49372,-1.55438 -5.38147,-1.85291 -0.29532,-0.0434 -0.59065,-0.0868 -0.88595,-0.13017 -0.29197,-0.0267 -0.58529,-0.0411 -0.87585,-0.0801 -0.22395,-0.03 -0.84723,-0.26135 -0.66593,-0.12649 5.12042,3.80867 3.36523,1.90021 2.22459,1.42779 0.17467,-1.53701 2.24009,-2.47123 3.01024,-3.70358 1.6583,-1.93913 3.51396,-3.67432 5.32355,-5.4706 1.74945,-1.83216 3.3392,-3.79437 4.87452,-5.80766 z" />
    <path
       id="path17"
       style="fill:#000000;fill-opacity:1;fill-rule:evenodd;stroke:none;stroke-width:1.158;stroke-linecap:round;stroke-linejoin:bevel;stroke-opacity:1"
       d="m 380.68147,416.26822 c -32.00302,-0.77835 -63.99507,1.22148 -95.8758,3.75429 l 3.15588,2.26085 c 31.34066,-3.68257 62.95192,-5.47691 94.51464,-4.71083 8.30879,0.20166 16.60361,0.79064 24.90546,1.18598 0.16553,0.01 0.33109,0.02 0.49661,0.03 -0.0912,-0.38706 -0.14471,-0.78804 -0.16743,-1.21285 -0.70294,-0.0426 -1.40581,-0.0837 -2.10892,-0.1235 -8.30673,-0.39465 -16.60681,-0.98169 -24.92044,-1.18391 z" />
    <text
       xml:space="preserve"
       style="font-style:normal;font-variant:normal;font-weight:normal;font-stretch:normal;font-size:14.1111px;line-height:1.3;font-family:Elham;-inkscape-font-specification:Elham;text-align:center;writing-mode:lr-tb;direction:ltr;text-anchor:middle;fill:#000000;fill-opacity:1;fill-rule:evenodd;stroke:none;stroke-width:1.158;stroke-linecap:round;stroke-linejoin:bevel;stroke-opacity:1"
       x="357.60489"
       y="411.75159"
       id="text17"><tspan
         sodipodi:role="line"
         id="tspan17"
         style="stroke-width:1.158"
         x="357.60489"
         y="411.75159">process</tspan></text>
    <path
       style="display:inline;fill:none;fill-rule:evenodd;stroke:#000000;stroke-width:0.367005px;stroke-linecap:butt;stroke-linejoin:miter;stroke-opacity:1"
       d="m 257.8922,494.14597 -0.26649,95.362"
       id="path20"
       inkscape:connector-type="polyline"
       inkscape:connector-curvature="0" />
    <rect
       style="fill:none;fill-rule:evenodd;stroke:#000000;stroke-width:0.982111;stroke-linecap:round;stroke-linejoin:bevel;stroke-opacity:1"
       id="rect20"
       width="276.46432"
       height="46.534977"
       x="118.70031"
       y="589.99585"
       ry="0.0037490299" />
    <text
       xml:space="preserve"
       style="font-style:normal;font-variant:normal;font-weight:normal;font-stretch:normal;font-size:28.443px;line-height:1.3;font-family:Elham;-inkscape-font-specification:Elham;text-align:center;writing-mode:lr-tb;direction:ltr;text-anchor:middle;fill:#000000;fill-opacity:1;fill-rule:evenodd;stroke:none;stroke-width:2.33412;stroke-linecap:round;stroke-linejoin:bevel;stroke-opacity:1"
       x="257.78958"
       y="622.78735"
       id="text20"><tspan
         sodipodi:role="line"
         id="tspan20"
         style="font-style:normal;font-variant:normal;font-weight:normal;font-stretch:normal;font-family:Elham;-inkscape-font-specification:Elham;fill:#000000;fill-opacity:1;stroke:none;stroke-width:2.33412"
         x="257.78958"
         y="622.78735">Respond</tspan></text>
    <path
       style="fill:#000000;fill-opacity:1;fill-rule:evenodd;stroke:none;stroke-width:1.158;stroke-linecap:round;stroke-linejoin:bevel;stroke-opacity:1"
       id="path21"
       d="m 237.44931,537.14567 c -0.3243,-0.20786 2.63726,1.4701 1.97228,1.11286 -0.70432,-0.37838 -1.34479,-0.88997 -2.09335,-1.17091 -0.44635,-0.16751 0.78663,0.53938 1.16906,0.82405 0.0399,0.0297 1.94667,1.53349 2.04928,1.6144 0.9599,0.91721 3.18725,2.46722 2.89282,4.00415 -2.15167,0.95536 -4.58618,1.12073 -6.88835,1.51429 -2.73251,0.32285 -5.35395,1.05281 -7.88479,2.10569 -1.07506,0.48723 -2.11694,0.97859 -3.03441,1.72511 0,0 3.32502,2.08682 3.32502,2.08682 v 0 c 0.88988,-0.70985 1.90228,-1.18644 2.93601,-1.65711 2.49615,-1.04383 5.09648,-1.72889 7.78671,-2.06666 1.69812,-0.28437 5.1966,-0.56631 6.65012,-1.37843 0.21658,-0.12099 0.39142,-0.30495 0.58711,-0.45743 0.0463,-0.17984 0.13665,-0.35381 0.13893,-0.53949 0.0183,-1.48225 -1.97895,-2.9791 -2.92015,-3.90078 -1.05662,-0.82341 -2.07804,-1.78019 -3.2189,-2.48584 -2.13632,-1.32141 -4.32752,-2.58217 -6.53624,-3.78552 z" />
    <path
       style="fill:#000000;fill-opacity:1;fill-rule:evenodd;stroke:none;stroke-width:1.158;stroke-linecap:round;stroke-linejoin:bevel;stroke-opacity:1"
       id="path22"
       d="m 225.8958,541.88595 c -2.43969,0.16002 -4.88349,0.26632 -7.31906,0.48 -25.42273,2.2306 -50.70419,5.71934 -75.92377,9.57292 -18.51682,2.95804 -36.9125,6.59434 -55.354276,9.97148 -4.674473,0.92491 -2.543969,0.47924 -6.39609,1.3149 0,0 3.058636,2.11593 3.058636,2.11593 v 0 c 3.693028,-0.94091 1.643883,-0.44194 6.154949,-1.46566 18.124751,-3.76264 36.255511,-7.51179 54.521311,-10.54142 25.36306,-4.07536 50.84114,-7.80193 76.52372,-9.10699 2.58431,-0.13134 5.17429,-0.10372 7.76144,-0.15557 z" />
    <path
       style="fill:#000000;fill-opacity:1;fill-rule:evenodd;stroke:none;stroke-width:1.158;stroke-linecap:round;stroke-linejoin:bevel;stroke-opacity:1"
       id="path23"
       d="m -48.761077,497.0554 c 10.124324,-1.72178 20.484603,-1.42883 30.704427,-1.01952 11.7468519,0.72387 23.47781,2.13865 34.669182,5.87801 1.076931,0.49622 2.175047,0.94882 3.230795,1.48865 0.153938,0.0787 -0.625355,-0.22553 -0.509492,-0.0972 0.655553,0.72607 1.525344,1.23624 2.187782,1.95604 2.201812,2.39247 3.181813,5.11966 4.168182,8.14398 1.993892,7.72017 1.276493,15.70659 0.752226,23.56001 -0.87862,12.45684 -1.247402,24.93703 -0.596117,37.40898 0.760519,13.7228 5.123212,25.88557 11.271242,38.0179 3.420817,6.46494 7.808791,12.32136 12.127397,18.19521 1.725829,2.2302 2.617517,4.72406 2.924572,7.49025 0.228121,1.86254 -0.258625,3.57587 -1.360371,5.07077 -1.133729,1.43544 -2.355255,2.81686 -3.578805,4.1829 -2.242457,2.38167 -3.263646,5.26317 -4.176363,8.33708 -0.467625,5.94399 -0.677005,7.06712 -0.451292,14.06178 0.236244,7.32097 1.603457,26.42224 2.071068,33.00754 4.773356,67.22252 -1.78871,-26.5761 2.766833,38.74809 1.115245,22.18629 3.673536,44.94927 -0.720143,66.97134 -0.503753,2.52494 -1.293595,4.98424 -1.940393,7.47638 -4.660313,12.29849 -10.05218,16.46285 -21.32275,22.1674 0,0 3.117697,2.04795 3.117697,2.04795 v 0 c 3.011987,-1.54503 5.581766,-2.74185 8.38345,-4.6846 6.707904,-4.65148 10.190829,-10.22255 12.945311,-17.84022 0.62281,-2.5186 1.388671,-5.00605 1.868434,-7.55576 4.170598,-22.16468 1.480553,-44.99885 0.258649,-67.28558 -0.816507,-11.4269 -1.971609,-27.33307 -2.709153,-38.7173 -0.621258,-9.58926 -1.503688,-22.9126 -1.62087,-32.74991 -0.08129,-6.82432 0.159287,-8.00764 0.748856,-13.78985 0.918723,-3.0073 1.937081,-5.82924 4.144354,-8.15715 1.240443,-1.3698 2.485451,-2.75095 3.617452,-4.20754 1.135898,-1.57832 1.704393,-3.37267 1.482741,-5.33344 -0.27953,-2.83769 -1.122987,-5.4151 -2.896309,-7.70581 C 48.42741,626.22495 43.929332,620.3884 40.448934,613.89632 34.188628,601.71948 29.880981,589.7996 29.050121,575.98621 c -0.634093,-12.44153 -0.242287,-24.88496 0.700664,-37.3063 0.554937,-7.88069 1.330299,-15.88537 -0.613148,-23.64944 -0.32299,-1.04309 -0.569743,-2.11293 -0.968973,-3.1293 -2.516264,-6.40594 -8.349623,-9.82417 -14.525791,-12.2926 -11.1804504,-3.62421 -22.8740864,-4.97197 -34.575874,-5.68044 -10.339673,-0.42895 -20.80973,-0.7343 -31.067552,0.89281 z" />
    <text
       xml:space="preserve"
       style="font-style:normal;font-variant:normal;font-weight:normal;font-stretch:normal;font-size:14.1111px;line-height:1.3;font-family:Elham;-inkscape-font-specification:Elham;text-align:center;writing-mode:lr-tb;direction:ltr;text-anchor:middle;fill:#000000;fill-opacity:1;fill-rule:evenodd;stroke:none;stroke-width:1.158;stroke-linecap:round;stroke-linejoin:bevel;stroke-opacity:1"
       x="-77.274803"
       y="534.41089"
       id="text23"><tspan
         sodipodi:role="line"
         id="tspan23"
         style="stroke-width:1.158"
         x="-77.274803"
         y="534.41089">inside servlet function</tspan></text>
    <text
       xml:space="preserve"
       style="font-style:normal;font-variant:normal;font-weight:normal;font-stretch:normal;font-size:14.1111px;line-height:1.3;font-family:Elham;-inkscape-font-specification:Elham;text-align:center;writing-mode:lr-tb;direction:ltr;text-anchor:middle;fill:#000000;fill-opacity:1;fill-rule:evenodd;stroke:none;stroke-width:1.158;stroke-linecap:round;stroke-linejoin:bevel;stroke-opacity:1"
       x="70.568344"
       y="557.04028"
       id="text24"
       transform="rotate(-8.2910372)"><tspan
         sodipodi:role="line"
         id="tspan24"
         style="stroke-width:1.158"
         x="70.568344"
         y="557.04028">service internal ctx</tspan></text>
    <path
       style="fill:#000000;fill-opacity:1;fill-rule:evenodd;stroke:none;stroke-width:1.158;stroke-linecap:round;stroke-linejoin:bevel;stroke-opacity:1"
       id="path24"
       d="m 333.50941,147.10595 c -3.64022,3.70984 -6.84723,7.82507 -10.21688,11.77913 -3.53804,4.31754 -6.56329,9.00633 -9.67312,13.63012 -1.9409,3.20668 -4.16356,6.22214 -6.30663,9.29257 -1.03463,1.65548 -0.56216,0.82156 -1.4247,2.49759 0,0 3.40804,1.94451 3.40804,1.94451 v 0 c 0.83545,-1.64565 0.37571,-0.82482 1.38761,-2.45779 2.13505,-3.07745 4.34366,-6.10464 6.27205,-9.32023 3.09703,-4.61272 6.0665,-9.32162 9.60649,-13.61875 3.35391,-3.93746 6.55508,-8.04864 10.29457,-11.62993 z" />
    <path
       style="fill:#000000;fill-opacity:1;fill-rule:evenodd;stroke:none;stroke-width:1.158;stroke-linecap:round;stroke-linejoin:bevel;stroke-opacity:1"
       id="path25"
       d="m 298.36274,174.69017 c 0.71223,3.03627 1.17991,6.12447 1.57742,9.21574 0.32375,2.71592 0.47199,5.44816 0.528,8.18144 0.15436,1.17006 0.0533,2.50085 0.6939,3.54201 4.35637,2.54141 2.93603,2.63183 5.50024,0.51662 1.15321,-0.94301 2.53955,-1.41662 3.9247,-1.90055 2.16585,-0.85673 4.40785,-1.48396 6.64069,-2.13514 1.64336,-0.60851 3.31142,-1.11313 5.0287,-1.45784 0,0 -3.23318,-2.24409 -3.23318,-2.24409 v 0 c -1.69249,0.40319 -3.34134,0.93307 -4.97793,1.52474 -2.24496,0.6521 -4.48987,1.30752 -6.67908,2.13281 -1.43198,0.49354 -2.85242,1.01047 -4.03381,1.99327 -0.41553,0.33636 -0.81656,0.70968 -1.24429,1.02948 -0.0884,0.0661 -0.17814,0.13695 -0.28263,0.17254 -0.0564,0.0192 -0.22828,-0.0475 -0.17793,-0.0157 1.04873,0.66228 2.12604,1.27818 3.18908,1.91727 -0.94499,-0.66784 -0.64074,-2.3339 -0.88231,-3.32125 -0.0942,-2.76125 -0.28239,-5.51791 -0.60457,-8.26274 -0.39428,-3.07463 -0.85516,-6.14056 -1.41788,-9.18844 z" />
    <path
       style="fill:#000000;fill-opacity:1;fill-rule:evenodd;stroke:none;stroke-width:1.158;stroke-linecap:round;stroke-linejoin:bevel;stroke-opacity:1"
       id="path26"
       d="m 337.10827,137.65878 c -0.1017,-16.6403 0.49824,-33.2748 0.71832,-49.912873 0.0491,-12.57922 -0.28961,-25.170846 -1.91071,-37.654814 -0.3624,-2.228723 -0.1713,-1.254958 -0.53221,-2.929062 0,0 -3.49113,-1.66834 -3.49113,-1.66834 v 0 c 0.51689,1.702323 0.24556,0.710218 0.75205,2.992569 2.19356,12.52723 2.6628,25.261157 2.63909,37.960416 -0.14769,16.490214 -0.50321,32.987724 -1.59732,49.445824 z" />
    <path
       style="fill:#000000;fill-opacity:1;fill-rule:evenodd;stroke:none;stroke-width:1.158;stroke-linecap:round;stroke-linejoin:bevel;stroke-opacity:1"
       id="path27"
       d="m 316.9461,44.252649 c -30.86039,0.952881 -61.70599,2.455185 -92.57782,3.021658 -9.98032,0.183129 -19.96268,0.231257 -29.944,0.346888 -10.32849,-0.06981 -20.65761,-0.07793 -30.98552,-0.209429 -22.09776,-0.281352 -37.52254,-0.703477 -59.40678,-1.431867 -50.770741,-1.689843 0.36576,-0.221519 -43.794393,-1.435065 0,0 1.363081,0.994479 1.363081,0.994479 v 0 c 6.423713,0.07776 12.848113,0.109738 19.271112,0.233272 7.897045,0.151887 15.791841,0.403535 23.68804,0.592971 30.06569,0.721305 60.1346,1.437365 90.21064,1.506736 10.08549,-0.04057 20.17149,-0.01024 30.25645,-0.121714 31.60067,-0.349324 63.19459,-1.674119 94.80024,-1.404723 z" />
    <text
       xml:space="preserve"
       style="font-style:normal;font-variant:normal;font-weight:normal;font-stretch:normal;font-size:14.1111px;line-height:1.3;font-family:Elham;-inkscape-font-specification:Elham;text-align:center;writing-mode:lr-tb;direction:ltr;text-anchor:middle;fill:#000000;fill-opacity:1;fill-rule:evenodd;stroke:none;stroke-width:1.158;stroke-linecap:round;stroke-linejoin:bevel;stroke-opacity:1"
       x="188.60071"
       y="39.718479"
       id="text27"><tspan
         sodipodi:role="line"
         id="tspan27"
         style="stroke-width:1.158"
         x="188.60071"
         y="39.718479">parsed by framwrork (user non-interactible)</tspan></text>
    <path
       style="fill:#000000;fill-opacity:1;fill-rule:evenodd;stroke:none;stroke-width:0.97372;stroke-linecap:round;stroke-linejoin:bevel;stroke-opacity:1"
       id="path28"
       d="m 77.541787,567.1736 c -2.103305,11.97688 -5.159481,23.86042 -7.969435,35.76189 -2.269305,10.03555 -4.791604,20.04157 -7.052707,30.07799 -0.433096,2.0383 -0.236908,1.11726 -0.588089,2.76317 0,0 3.358224,1.24471 3.358224,1.24471 v 0 c 0.199019,-1.69535 0.07998,-0.74875 0.369622,-2.83899 1.602052,-10.18645 3.793702,-20.32054 6.05835,-30.44232 2.744576,-11.80178 5.631894,-23.59493 9.309259,-35.27203 z" />
  </g>
</svg>
